<?xml version="1.0" encoding="utf-8"?>
<!-- Generator: Adobe Illustrator 25.2.0, SVG Export Plug-In . SVG Version: 6.00 Build 0)  -->
<svg version="1.1" id="Capa_1" xmlns="http://www.w3.org/2000/svg" xmlns:xlink="http://www.w3.org/1999/xlink" x="0px" y="0px"
	 viewBox="0 0 539.23 727.78" style="enable-background:new 0 0 539.23 727.78;" xml:space="preserve">
<style type="text/css">
	.st0{fill:#212222;}
	.st1{fill:#FFFFFF;}
	.st2{fill:#FFB8B8;}
	.st3{fill:#2F2E41;}
	.st4{fill:#FB088C;}
</style>
<path class="st0" d="M539.23,172.95h-4V63.4c0-35.02-28.39-63.4-63.4-63.4l0,0H239.74c-35.02,0-63.4,28.39-63.4,63.4c0,0,0,0,0,0
	v600.97c0,35.02,28.39,63.4,63.4,63.4h232.09c35.02,0,63.4-28.39,63.4-63.4V250.92h4L539.23,172.95z"/>
<path class="st1" d="M474.39,16.5h-30.29c4.69,11.5-0.83,24.63-12.33,29.32c-2.7,1.1-5.58,1.67-8.49,1.67H290.3
	c-12.42,0-22.49-10.07-22.49-22.5c0-2.91,0.57-5.8,1.67-8.49h-28.3c-26.15,0-47.35,21.2-47.35,47.35v600.09
	c0,26.15,21.2,47.35,47.35,47.35l0,0h233.2c26.15,0,47.35-21.2,47.35-47.35l0,0l0,0V63.84C521.73,37.69,500.54,16.49,474.39,16.5
	L474.39,16.5z"/>
<path class="st2" d="M133.3,231.97c12.31,10.26-12.31,42.18-12.31,42.18s58.48,2.28,53.86,2.28s-8.46-48.45-8.46-48.45
	S120.99,221.71,133.3,231.97z"/>
<path class="st3" d="M109.53,361.8l53,19l29,12c0,0,19,52,28,75s-20,60-20,60s3,11,0,16c-1.55,2.55-2.89,5.23-4,8c-1,2-12,1-24,0
	s-1-20-1-20s10-40,11-41c0.93-0.93,3.61-7.97,0.7-10.53c-2.71-2.24-4.93-5.01-6.54-8.13c-1.35-2.69-3.09-5.17-5.17-7.34
	c0,0-31.69-46.74-47.35-57.37s-52,2-52,2s17.35,26.37,17.35,32.37s1,9,4,11s2,6,2,10s3,12,8,16s6,8,5,16s-28,4-28,4l-13-25
	c0,0-20-32-33-66c-6.5-17,0.25-28.5,8.62-35.75c8.07-6.84,18.45-10.34,29.02-9.76l47.01,2.14l-33.65-9.63L109.53,361.8z"/>
<path class="st2" d="M284.53,272.8l57-26c0,0,20-34,8-38s-22,30-22,30l-41,8L284.53,272.8z"/>
<path class="st2" d="M58.53,290.8c0,0-29,26-30,29s-19,11-27-3s18-13,18-13l18-23L58.53,290.8z"/>
<path class="st4" d="M29.18,275.43l31,23l51-18c-9.48,29.68-2.05,61.11-33.19,79.31l118,40c-10.44-42.05,6.05-76.86,20.19-119.31
	c22.39-11.54,50.48-8.81,81,0v-41l-124,7l-19.19,10.31l-22.81-6.31C98.16,245.08,56.9,256.78,29.18,275.43z"/>
<path class="st3" d="M105.53,493.8c3,2,8,21,9,28s-8,10-13,11s-4,4-7,7s-14,4-29,1s7-22,9-23s8-24,8-24S102.53,491.8,105.53,493.8z"
	/>
<path class="st3" d="M188.53,548.8l8,21l7.56,11.35c4.17,6.12,5.49,13.74,3.63,20.91c-1.27,4.69-3.91,9.12-9.2,10.74
	c-13,4-21-21-21-21s-7-14-12-27s4-20,4-20L188.53,548.8z"/>
<circle class="st2" cx="150.18" cy="220.66" r="24"/>
<path class="st3" d="M177.38,214.73c2.14-6.12,1.58-12.87-1.55-18.55c-3.08-5.47-9.02-10.59-20.43-10.88
	c-24.9-0.63-35.69,18.14-34.28,23.65s6.42,18.6,6.42,18.6s-3.11-12.61,3.11-13.87s30.34-6.31,37.35-0.63
	c4.07,3.11,6.15,8.17,5.45,13.24L177.38,214.73z"/>
</svg>
