<?xml version="1.0" encoding="utf-8"?>
<!-- Generator: Adobe Illustrator 25.2.0, SVG Export Plug-In . SVG Version: 6.00 Build 0)  -->
<svg version="1.1" id="Capa_1" xmlns="http://www.w3.org/2000/svg" xmlns:xlink="http://www.w3.org/1999/xlink" x="0px" y="0px"
	 viewBox="0 0 200 200" style="enable-background:new 0 0 200 200;" xml:space="preserve">
<style type="text/css">
	.st0{display:none;}
	.st1{display:inline;}
	.st2{fill:#FB088C;}
</style>
<g id="AUrz5D_1_" class="st0">
	<g class="st1">
		<path class="st2" d="M31.3,37.53c-4.35,0-8.5,0.03-12.65-0.01c-2.87-0.03-5.31-2.03-5.96-4.78c-0.65-2.71,0.54-5.65,3.03-6.88
			c1.1-0.55,2.45-0.83,3.69-0.83c11.74-0.06,23.47-0.04,35.21-0.05c0.5,0,1,0,1.52,0c0.14-2.27,0.13-4.41,0.42-6.52
			C58.03,7.77,66.94,0.01,77.72,0c14.91-0.01,29.81,0.01,44.72,0.02c10.54,0,19.52,7.73,21,18.18c0.31,2.19,0.31,4.42,0.46,6.77
			c0.5,0,1,0,1.5,0c11.78,0,23.56-0.01,35.34,0c3.72,0,6.45,2.35,6.71,5.71c0.29,3.75-2.44,6.79-6.2,6.83
			c-3.64,0.04-7.28,0.01-10.92,0.01c-0.47,0-0.94,0-1.6,0c0,0.57,0,1.06,0,1.56c0,32.68,0,65.37,0,98.05c0,13.66,0.01,27.33,0,40.99
			c-0.01,12.32-9.5,21.85-21.8,21.85c-31.27,0.01-62.54,0.01-93.81,0c-12.31-0.01-21.81-9.52-21.81-21.85
			c-0.01-39.75,0-79.5,0.01-119.26c0-6.6-0.01-13.19-0.01-19.79C31.3,38.63,31.3,38.17,31.3,37.53z M43.76,37.59
			c0,0.59,0,1.09,0,1.59c0,45.06,0,90.13,0,135.19c0,1.24-0.03,2.48,0.01,3.73c0.15,5.55,4.34,9.49,9.73,9.39
			c10.45-0.19,20.9-0.06,31.35-0.06c20.69,0,41.38,0,62.07,0c4.5,0,7.92-2.61,8.98-6.94c0.27-1.11,0.35-2.29,0.35-3.44
			c0.02-46.01,0.01-92.01,0.02-138.02c0-0.46,0-0.92,0-1.45C118.75,37.59,81.37,37.59,43.76,37.59z M131.25,24.92
			c0-0.95-0.02-1.76,0-2.57c0.17-4.97-3.29-9.97-9.84-9.87c-14.6,0.22-29.2,0.08-43.8,0.06c-2.56,0-4.67,0.95-6.36,2.82
			c-2.49,2.74-2.65,6.06-2.37,9.57C89.66,24.92,110.36,24.92,131.25,24.92z"/>
		<path class="st2" d="M137.52,112.47c0,16.57,0,33.14,0,49.72c0,3.68-2.55,6.42-6.02,6.52c-3.76,0.1-6.51-2.63-6.52-6.54
			c-0.02-8.78-0.01-17.56-0.01-26.34c0-24.28,0-48.56,0-72.84c0-3.97,2.65-6.76,6.36-6.73c3.49,0.03,6.17,2.77,6.18,6.37
			c0.02,6.72,0.01,13.45,0.01,20.17C137.52,92.69,137.52,102.58,137.52,112.47z"/>
		<path class="st2" d="M62.51,112.46c0-16.57,0-33.14,0-49.72c0-2.53,1.05-4.49,3.26-5.72c2.07-1.15,4.22-1.1,6.24,0.12
			c2.16,1.31,3.07,3.33,3.06,5.84c-0.02,12.33-0.01,24.67-0.01,37c0,20.6-0.01,41.19,0.01,61.79c0,1.59-0.27,3.06-1.22,4.37
			c-1.56,2.15-4.3,3.08-6.84,2.33c-2.59-0.77-4.43-3.08-4.49-5.79c-0.05-2.65-0.01-5.31-0.01-7.96
			C62.51,140.64,62.51,126.55,62.51,112.46z"/>
		<path class="st2" d="M106.26,112.54c0,16.37,0,32.73-0.01,49.1c0,0.93-0.05,1.91-0.31,2.79c-0.91,2.98-3.73,4.65-6.93,4.21
			c-2.85-0.39-5.07-2.85-5.22-5.82c-0.02-0.3-0.01-0.6-0.01-0.9c0-32.95,0-65.89,0-98.84c0-4.26,2.79-7.06,6.75-6.81
			c3,0.19,5.47,2.63,5.71,5.63c0.04,0.47,0.03,0.94,0.04,1.41C106.26,79.72,106.26,96.13,106.26,112.54z"/>
	</g>
</g>
<g id="_x30_cEeRA_1_">
	<g>
		<path d="M164.61,0c4.66,0.07,9.26,2.1,13.11,5.98c4.6,4.65,9.27,9.23,13.88,13.87c2.15,2.16,4.46,4.19,5.93,6.94
			c2.94,5.53,3.27,11.17,0.94,17.01c-1.26,3.18-3.48,5.58-5.85,7.92c-3.7,3.66-7.37,7.36-11.05,11.04c-3.2,3.19-6.4,6.38-9.59,9.57
			c-3.7,3.71-7.39,7.43-11.1,11.13c-3.12,3.13-6.26,6.24-9.38,9.37c-3.71,3.7-7.41,7.41-11.11,11.12c-3.17,3.17-6.35,6.33-9.52,9.5
			c-3.7,3.71-7.4,7.42-11.1,11.13c-3.15,3.15-6.31,6.29-9.46,9.44c-3.66,3.66-7.31,7.32-10.97,10.98c-3.17,3.17-6.35,6.34-9.52,9.51
			c-3.75,3.76-7.48,7.53-11.24,11.28c-4.03,4.02-8.09,8.02-12.13,12.04c-0.49,0.48-1,0.95-1.42,1.49c-1.62,2.07-3.97,2.77-6.33,3.54
			c-4.59,1.49-9.14,3.07-13.72,4.6c-3.14,1.05-6.3,2.05-9.44,3.1c-3.55,1.18-7.08,2.41-10.63,3.6c-3.21,1.07-6.42,2.11-9.63,3.17
			c-2.24,0.74-4.47,1.53-6.72,2.26c-2.6,0.83-4.96,0.46-6.88-1.59c-1.96-2.09-2-4.51-1.12-7.09c1.35-3.94,2.66-7.9,3.99-11.85
			c1.31-3.89,2.63-7.77,3.92-11.66c1.27-3.79,2.51-7.6,3.78-11.39c1.49-4.45,3.01-8.89,4.51-13.34c0.34-1,0.75-1.98,0.96-3
			c0.45-2.24,1.97-3.72,3.49-5.23c4.38-4.36,8.74-8.75,13.11-13.12c6.54-6.53,13.08-13.04,19.62-19.57
			c6.84-6.83,13.67-13.67,20.51-20.51c6.88-6.88,13.77-13.76,20.65-20.64c5.65-5.65,11.3-11.3,16.94-16.95
			c6.64-6.65,13.28-13.32,19.92-19.97c5.97-5.98,11.94-11.96,17.94-17.92C153.74,1.96,158.37,0,164.61,0z M159.43,67.19
			c-8.93-8.94-17.73-17.76-26.66-26.7c-1.25,1.3-2.53,2.66-3.84,3.98c-3.67,3.7-7.36,7.38-11.05,11.07
			c-3.64,3.64-7.28,7.28-10.93,10.92c-3.25,3.24-6.5,6.49-9.74,9.73c-3.13,3.13-6.27,6.26-9.39,9.39
			c-3.69,3.69-7.36,7.39-11.05,11.08c-3.62,3.62-7.25,7.22-10.87,10.84c-4.1,4.1-8.2,8.22-12.3,12.32c-3.99,3.99-8,7.96-11.99,11.94
			c-2.95,2.94-5.85,5.94-8.83,8.84c-1.99,1.93-3.72,3.91-4.47,6.74c-1.05,3.96-2.49,7.81-3.79,11.7c-1.54,4.6-3.1,9.2-4.66,13.8
			c-0.78,2.3-1.57,4.59-2.33,6.9c-0.43,1.28-0.81,2.58-1.27,4.05c1.88-0.64,3.54-1.23,5.22-1.79c5.48-1.82,10.97-3.63,16.45-5.44
			c5.08-1.68,10.15-3.36,15.21-5.08c1.28-0.44,2.65-0.64,3.7-1.7c5.86-5.92,11.75-11.8,17.65-17.69
			c6.52-6.51,13.06-13.01,19.58-19.53c6.24-6.24,12.46-12.5,18.69-18.74c5.77-5.77,11.57-11.52,17.34-17.29
			c8.03-8.03,16.05-16.08,24.07-24.12C155.93,70.65,157.71,68.9,159.43,67.19z M168.39,58.11c1.06-1.03,2.06-1.98,3.04-2.95
			c4.15-4.14,8.31-8.26,12.43-12.43c1.03-1.04,2.17-2.1,2.81-3.37c1.54-3.08,0.85-5.88-1.6-8.32c-4.84-4.79-9.63-9.63-14.47-14.41
			c-1.2-1.19-2.4-2.5-3.84-3.31c-2.61-1.46-5.93-0.88-8.39,1.69c-3.14,3.3-6.42,6.47-9.64,9.69c-2.29,2.29-4.59,4.58-6.89,6.89
			C150.71,40.45,159.56,49.28,168.39,58.11z"/>
	</g>
</g>
</svg>
