<?xml version="1.0" encoding="utf-8"?>
<!-- Generator: Adobe Illustrator 25.2.0, SVG Export Plug-In . SVG Version: 6.00 Build 0)  -->
<svg version="1.1" id="Capa_1" xmlns="http://www.w3.org/2000/svg" xmlns:xlink="http://www.w3.org/1999/xlink" x="0px" y="0px"
	 viewBox="0 0 568.7 381.2" style="enable-background:new 0 0 568.7 381.2;" xml:space="preserve">
<style type="text/css">
	.st0{fill:#E6E6E6;}
	.st1{fill:#FFFFFF;}
	.st2{fill:#FB088C;}
	.st3{fill:#F2F2F2;}
	.st4{fill:#FFB6B6;}
	.st5{fill:#212222;}
	.st6{fill:#CCCCCC;}
	.st7{fill:#3F3D56;}
</style>
<path class="st0" d="M567.7,47.3H1c-0.6,0-1-0.4-1-1s0.4-1,1-1h566.7c0.6,0,1,0.4,1,1S568.3,47.3,567.7,47.3z"/>
<ellipse class="st0" cx="29.4" cy="8.6" rx="8.5" ry="8.6"/>
<ellipse class="st0" cx="58.6" cy="8.6" rx="8.5" ry="8.6"/>
<ellipse class="st0" cx="87.8" cy="8.6" rx="8.5" ry="8.6"/>
<path class="st0" d="M121.1,15.5c-0.3,0-0.5-0.1-0.7-0.3l-5.7-5.8c-0.4-0.4-0.4-1,0-1.4l5.7-5.8c0.4-0.4,1-0.4,1.4,0
	c0.4,0.4,0.4,1,0,1.4l-5,5.1l5,5.1c0.4,0.4,0.4,1,0,1.4C121.6,15.4,121.4,15.5,121.1,15.5z"/>
<path class="st0" d="M130.7,15.5c-0.6,0-1-0.4-1-1c0-0.3,0.1-0.5,0.3-0.7l5-5.1l-5-5.1c-0.4-0.4-0.4-1,0-1.4c0.4-0.4,1-0.4,1.4,0
	l5.7,5.8c0.4,0.4,0.4,1,0,1.4l-5.7,5.8C131.2,15.4,131,15.5,130.7,15.5z"/>
<path class="st0" d="M517.2,1h-10.6c-1.2,0-2.2,1-2.2,2.2c0,0,0,0,0,0v10.6c0,1.2,1,2.2,2.2,2.2c0,0,0,0,0,0h10.6
	c1.2,0,2.2-1,2.2-2.2V3.2C519.4,2,518.4,1,517.2,1z"/>
<path class="st0" d="M491.2,1h-10.6c-1.2,0-2.2,1-2.2,2.2c0,0,0,0,0,0v10.6c0,1.2,1,2.2,2.2,2.2c0,0,0,0,0,0h10.6
	c1.2,0,2.2-1,2.2-2.2V3.2C493.4,2,492.4,1,491.2,1z"/>
<path class="st0" d="M541.7,1.5h-10.6c-1.2,0-2.2,1-2.2,2.2c0,0,0,0,0,0v10.6c0,1.2,1,2.2,2.2,2.2c0,0,0,0,0,0h10.6
	c1.2,0,2.2-1,2.2-2.2V3.7C543.9,2.5,542.9,1.5,541.7,1.5z"/>
<path class="st0" d="M326.8,5.5H242c-1.5,0-2.7,1.2-2.7,2.7c0,1.5,1.2,2.7,2.7,2.7c0,0,0,0,0,0h84.8c1.5,0,2.7-1.2,2.7-2.7
	C329.4,6.7,328.2,5.5,326.8,5.5z"/>
<path class="st1" d="M184.6,265.8h-84c-8.6,0-15.5,6.9-15.5,15.5s6.9,15.5,15.5,15.5l0,0h84c8.6,0,15.5-6.9,15.5-15.5
	S193.1,265.8,184.6,265.8z"/>
<path class="st2" d="M184.6,297.8h-84c-9.1,0-16.5-7.4-16.5-16.5s7.4-16.5,16.5-16.5h84c9.1,0,16.5,7.4,16.5,16.5
	S193.7,297.8,184.6,297.8z M100.6,266.8c-8,0-14.5,6.5-14.5,14.5s6.5,14.5,14.5,14.5h84c8,0,14.5-6.5,14.5-14.5s-6.5-14.5-14.5-14.5
	H100.6z"/>
<path class="st3" d="M291.7,103.6h227c14.8,0,26.7,12,26.7,26.7v224.1c0,14.8-12,26.7-26.7,26.7h-227c-14.8,0-26.7-12-26.7-26.7
	V130.3C264.9,115.6,276.9,103.6,291.7,103.6z"/>
<path class="st4" d="M416.1,218.1c-1.5-1.6-1.4-4,0.2-5.5c0.2-0.1,0.3-0.3,0.5-0.4l-3.3-13.4l6.2-4.1l2.6,18.9
	c0.9,1.6,0.6,3.5-0.7,4.8C420,219.7,417.6,219.7,416.1,218.1L416.1,218.1C416.2,218.1,416.1,218.1,416.1,218.1z"/>
<path class="st2" d="M422.6,204.8l-8.2,0.8L402.3,163c0-0.1-3.6-12.1-7.3-14c-1.4-0.7-1.8-1.1-1.8-1.5c0-0.4,0.6-0.7,1.3-1
	c0.8-0.3,1.5-0.7,2.1-1.1c1.7-1.3,0.9-2.6-0.1-4.3c-0.2-0.3-0.4-0.7-0.6-1.1c-0.6-1.1,0.1-5.7,1.9-13.7c1.1-4.9,5.3-8.6,10.3-9l0,0
	c6.4-0.6,12.1,4.2,12.7,10.6c0,0.1,0,0.2,0,0.3l1.6,24.7L422.6,204.8z"/>
<polygon class="st4" points="390.5,356.7 384.8,356.6 382.3,334.2 390.7,334.3 "/>
<path class="st5" d="M372.3,365.7c0,1.4,1.1,2.5,2.5,2.6l11.3,0.1l2-4l0.7,4l4.3,0l-1.1-14.4l-1.5-0.1l-6-0.4l-2-0.1l0,4.1l-9.1,6.2
	C372.7,364.1,372.3,364.9,372.3,365.7z"/>
<polygon class="st4" points="450.3,352.5 444.9,354.2 435.7,333.6 443.7,331.1 "/>
<path class="st5" d="M435.7,366.6c0.4,1.3,1.8,2.1,3.2,1.7l10.8-3.3l0.7-4.4l1.9,3.6l4.1-1.2l-5.4-13.4l-1.4,0.4l-5.9,1.4l-1.9,0.5
	l1.2,3.9l-6.8,8.6C435.6,365,435.4,365.8,435.7,366.6z"/>
<path class="st5" d="M379.1,168.2l-10.8,31.5l-0.4,2.5c-2.7,2.6,0.7,3.4-0.6,4.1s-2.2,2.6-0.4,2.9s1.1,125,8.4,129.8
	s24.4,10.1,23,3.1s-0.9-93.2-0.9-93.2s36.2,91.8,38.7,91.8s20.2-6.6,19.3-9.8s-32.9-82.9-30.7-86s3-4.4,0.9-4.6s-2.8,1-2.9-2
	s-0.5-10.3-0.5-10.3s-1.6-29-12.5-45l-0.9-9.5L379.1,168.2z"/>
<path class="st2" d="M406.2,108.1l-14.4,2l-0.9,10.4l-7.1,11.1c0,0-15.8,11.1-4.8,28.6l-0.7,9.7l35.6,14.3l3.4-62.3L406.2,108.1z"/>
<path class="st4" d="M382.1,221.7c-0.9-1.9-0.2-4.3,1.7-5.3c0.2-0.1,0.4-0.2,0.6-0.2l0.6-13.8l7.1-2.2l-2.9,18.9
	c0.4,1.8-0.4,3.6-2,4.4C385.3,224.4,383.1,223.6,382.1,221.7L382.1,221.7C382.1,221.7,382.1,221.7,382.1,221.7z"/>
<path class="st2" d="M392,210.8l-8-1.6l0.5-44.3c0-0.1,0-12.6-3-15.4c-1.1-1.1-1.5-1.6-1.3-2c0.1-0.4,0.7-0.5,1.5-0.5
	c0.8,0,1.6-0.2,2.4-0.5c2-0.8,1.6-2.2,1.1-4.2c-0.1-0.4-0.2-0.8-0.3-1.2c-0.2-1.2,1.7-5.4,5.7-12.6c2.5-4.4,7.5-6.7,12.5-5.7l0,0
	c6.3,1.3,10.4,7.4,9.1,13.7c0,0.1,0,0.2-0.1,0.3l-5.5,24.1L392,210.8z"/>
<circle class="st4" cx="397.5" cy="91.7" r="16.1"/>
<path class="st5" d="M418.8,113.9c2.2,3.1,3.6,6.6,4.2,10.3c-1.7,1.1-3.8,1.7-5.8,1.7c-0.1-0.3-0.1-0.5-0.2-0.8
	c-0.6-2.1-1.5-4.1-2.6-5.9c0.2,2-0.1,4-0.8,5.9c-1.1-0.5-2.3-0.8-3.5-0.9c-1,0-1.9,0.2-2.8,0.7c-1-3.4-1.9-6.4-2.6-8.6
	c0,5.5-8.1,10.4-17,9.7c-0.3-0.2,2.9-9.3,2.6-9.5c-0.7-0.5-1.4-1-2.1-1.5c2.9-4.5,6-9.3,5.5-10c0,0.9-3.1,5.2-6.6,9.2
	c-1.9-1.4,9-24.4,3.6-26.2c-0.1,0.8-1.3,0.8-2.7,0.6c-0.4-1.3-1-2.6-1.7-3.8c0.1,1.2,0,2.4-0.4,3.5c-1.4,0-2.9,0.2-4.3,0.5
	c-0.3-0.5-0.7-1-1.1-1.5c0,0.6,0,1.1,0,1.7c-1,0.1-1.9,0.4-2.8,1c-1.1-0.4,0.8-2.3,0.1-3.2c-1.8-2.4,0.9-5.9,2.5-8.4
	c3.7-5.2,10.7-6.8,16.3-3.8c0.2-0.8,1.5-1.4,3-1.8c0.7-0.1,1.4-0.2,2-0.2c6.8,0.1,16.2,5.7,16.6,12.5c0,0.7,0.1,1.4,0.1,2.2
	c0.5,7.6-0.1,14.6,5.1,20.2c1.9,2,1.9,11.5,1.2,16.4C422.8,121.9,421.5,114.2,418.8,113.9z"/>
<path class="st6" d="M326.8,367.6c0,0.7,0.5,1.2,1.2,1.2c0,0,0,0,0,0h165.3c0.7,0,1.2-0.5,1.2-1.2s-0.5-1.2-1.2-1.2H328
	C327.3,366.4,326.8,366.9,326.8,367.6C326.8,367.6,326.8,367.6,326.8,367.6z"/>
<path class="st7" d="M247.2,122.5H42.8c-2.4,0-4.4-2-4.4-4.4c0-2.4,2-4.4,4.4-4.4h204.4c2.4,0,4.4,2,4.4,4.4
	C251.6,120.5,249.7,122.5,247.2,122.5z"/>
<path class="st2" d="M247.2,216.5H42.8c-2.4,0-4.4-2-4.4-4.4c0-2.4,2-4.4,4.4-4.4h204.4c2.4,0,4.4,2,4.4,4.4
	C251.6,214.5,249.7,216.5,247.2,216.5z"/>
<path class="st2" d="M350.7,169.5H42.8c-2.4,0-4.4-2-4.4-4.4c0-2.4,2-4.4,4.4-4.4h307.9c2.4,0,4.4,2,4.4,4.4
	C355.1,167.5,353.1,169.5,350.7,169.5z"/>
<path class="st7" d="M251.6,229.7c-0.6,0-1-0.4-1-1v-33.3c0-0.6,0.4-1,1-1s1,0.4,1,1v33.3C252.6,229.3,252.2,229.7,251.6,229.7z"/>
<path class="st7" d="M21,101.1c0-0.6,0.4-1,1-1h33.3c0.6,0,1,0.4,1,1s-0.4,1-1,1H22C21.4,102.1,21,101.7,21,101.1z"/>
<path class="st7" d="M38.6,135.7c-0.6,0-1-0.4-1-1v-33.3c0-0.6,0.4-1,1-1s1,0.4,1,1v33.3C39.6,135.3,39.2,135.7,38.6,135.7z"/>
</svg>
