<?xml version="1.0" encoding="utf-8"?>
<!-- Generator: Adobe Illustrator 25.2.0, SVG Export Plug-In . SVG Version: 6.00 Build 0)  -->
<svg version="1.1" id="Capa_1" xmlns="http://www.w3.org/2000/svg" xmlns:xlink="http://www.w3.org/1999/xlink" x="0px" y="0px"
	 viewBox="0 0 200 200" style="enable-background:new 0 0 200 200;" xml:space="preserve">
<style type="text/css">
	.st0{fill:#FB088C;}
</style>
<g>
	<path class="st0" d="M100,0C44.77,0,0,44.77,0,100c0,55.23,44.77,100,100,100s100-44.77,100-100C200,44.77,155.23,0,100,0z
		 M151.54,106.66c-1.71,1.7-4.06,2.75-6.66,2.75h-35.47v35.47c0,5.2-4.21,9.41-9.41,9.41c-2.6,0-4.95-1.05-6.66-2.75
		c-1.7-1.71-2.75-4.06-2.75-6.66v-35.47H55.12c-5.2,0-9.41-4.21-9.41-9.41s4.21-9.41,9.41-9.41h35.47V55.12
		c0-5.2,4.21-9.41,9.41-9.41s9.41,4.21,9.41,9.41v35.47h35.47c5.2,0,9.41,4.21,9.41,9.41C154.29,102.6,153.24,104.95,151.54,106.66z
		"/>
</g>
</svg>
