<?xml version="1.0" encoding="utf-8"?>
<!-- Generator: Adobe Illustrator 25.2.0, SVG Export Plug-In . SVG Version: 6.00 Build 0)  -->
<svg version="1.1" id="Capa_1" xmlns="http://www.w3.org/2000/svg" xmlns:xlink="http://www.w3.org/1999/xlink" x="0px" y="0px"
	 viewBox="0 0 200 200" style="enable-background:new 0 0 200 200;" xml:space="preserve">
<style type="text/css">
	.st0{fill:#FB088C;}
</style>
<g id="AUrz5D_1_">
	<g>
		<path class="st0" d="M31.3,37.53c-4.35,0-8.5,0.03-12.65-0.01c-2.87-0.03-5.31-2.03-5.96-4.78c-0.65-2.71,0.54-5.65,3.03-6.88
			c1.1-0.55,2.45-0.83,3.69-0.83c11.74-0.06,23.47-0.04,35.21-0.05c0.5,0,1,0,1.52,0c0.14-2.27,0.13-4.41,0.42-6.52
			C58.03,7.77,66.94,0.01,77.72,0c14.91-0.01,29.81,0.01,44.72,0.02c10.54,0,19.52,7.73,21,18.18c0.31,2.19,0.31,4.42,0.46,6.77
			c0.5,0,1,0,1.5,0c11.78,0,23.56-0.01,35.34,0c3.72,0,6.45,2.35,6.71,5.71c0.29,3.75-2.44,6.79-6.2,6.83
			c-3.64,0.04-7.28,0.01-10.92,0.01c-0.47,0-0.94,0-1.6,0c0,0.57,0,1.06,0,1.56c0,32.68,0,65.37,0,98.05c0,13.66,0.01,27.33,0,40.99
			c-0.01,12.32-9.5,21.85-21.8,21.85c-31.27,0.01-62.54,0.01-93.81,0c-12.31-0.01-21.81-9.52-21.81-21.85
			c-0.01-39.75,0-79.5,0.01-119.26c0-6.6-0.01-13.19-0.01-19.79C31.3,38.63,31.3,38.17,31.3,37.53z M43.76,37.59
			c0,0.59,0,1.09,0,1.59c0,45.06,0,90.13,0,135.19c0,1.24-0.03,2.48,0.01,3.73c0.15,5.55,4.34,9.49,9.73,9.39
			c10.45-0.19,20.9-0.06,31.35-0.06c20.69,0,41.38,0,62.07,0c4.5,0,7.92-2.61,8.98-6.94c0.27-1.11,0.35-2.29,0.35-3.44
			c0.02-46.01,0.01-92.01,0.02-138.02c0-0.46,0-0.92,0-1.45C118.75,37.59,81.37,37.59,43.76,37.59z M131.25,24.92
			c0-0.95-0.02-1.76,0-2.57c0.17-4.97-3.29-9.97-9.84-9.87c-14.6,0.22-29.2,0.08-43.8,0.06c-2.56,0-4.67,0.95-6.36,2.82
			c-2.49,2.74-2.65,6.06-2.37,9.57C89.66,24.92,110.36,24.92,131.25,24.92z"/>
		<path class="st0" d="M137.52,112.47c0,16.57,0,33.14,0,49.72c0,3.68-2.55,6.42-6.02,6.52c-3.76,0.1-6.51-2.63-6.52-6.54
			c-0.02-8.78-0.01-17.56-0.01-26.34c0-24.28,0-48.56,0-72.84c0-3.97,2.65-6.76,6.36-6.73c3.49,0.03,6.17,2.77,6.18,6.37
			c0.02,6.72,0.01,13.45,0.01,20.17C137.52,92.69,137.52,102.58,137.52,112.47z"/>
		<path class="st0" d="M62.51,112.46c0-16.57,0-33.14,0-49.72c0-2.53,1.05-4.49,3.26-5.72c2.07-1.15,4.22-1.1,6.24,0.12
			c2.16,1.31,3.07,3.33,3.06,5.84c-0.02,12.33-0.01,24.67-0.01,37c0,20.6-0.01,41.19,0.01,61.79c0,1.59-0.27,3.06-1.22,4.37
			c-1.56,2.15-4.3,3.08-6.84,2.33c-2.59-0.77-4.43-3.08-4.49-5.79c-0.05-2.65-0.01-5.31-0.01-7.96
			C62.51,140.64,62.51,126.55,62.51,112.46z"/>
		<path class="st0" d="M106.26,112.54c0,16.37,0,32.73-0.01,49.1c0,0.93-0.05,1.91-0.31,2.79c-0.91,2.98-3.73,4.65-6.93,4.21
			c-2.85-0.39-5.07-2.85-5.22-5.82c-0.02-0.3-0.01-0.6-0.01-0.9c0-32.95,0-65.89,0-98.84c0-4.26,2.79-7.06,6.75-6.81
			c3,0.19,5.47,2.63,5.71,5.63c0.04,0.47,0.03,0.94,0.04,1.41C106.26,79.72,106.26,96.13,106.26,112.54z"/>
	</g>
</g>
</svg>
