<?xml version="1.0" encoding="utf-8"?>
<!-- Generator: Adobe Illustrator 25.2.0, SVG Export Plug-In . SVG Version: 6.00 Build 0)  -->
<svg version="1.1" id="Capa_1" xmlns="http://www.w3.org/2000/svg" xmlns:xlink="http://www.w3.org/1999/xlink" x="0px" y="0px"
	 viewBox="0 0 1080 1080" style="enable-background:new 0 0 1080 1080;" xml:space="preserve">
<style type="text/css">
	.st0{fill:#FFFFFF;}
	.st1{fill:#C7C7C7;}
</style>
<g>
	<path class="st0" d="M650.1,55.1l-27.9,79.1l-13.9-1.7l-10.1-62.1l-0.8-0.1l-24.6,57.8l-13.9-1.7l-8.2-83.5l12,1.5l5.7,65.4
		l0.8,0.1L593,54l13.5,1.6l9.5,60l0.9,0.1l21.5-62.1L650.1,55.1z"/>
	<path class="st0" d="M657.8,99.8c8.3-22.5,30.9-33.5,53.1-25.4c22,8.1,32.2,31.1,23.9,53.7c-8.2,22.4-30.8,33.6-53,25.4
		C659.7,145.4,649.5,122.4,657.8,99.8z M723,123.7c6-16.4-0.8-33.1-16.1-38.7c-15.4-5.6-31.4,2.7-37.4,19.1s0.8,33.1,16.2,38.7
		C701.1,148.5,717,140.1,723,123.7z"/>
	<path class="st0" d="M770.9,197.3l1.2-38.4l-13-7.9l-17.4,28.6l-10.3-6.3l42.7-69.9l25.9,15.8c13.6,8.3,17.1,21.4,9.7,33.5
		c-6,9.9-15.8,13.3-26.3,10.5l-1.1,41.1L770.9,197.3z M764.7,141.9l14.2,8.6c8.2,5,15.8,3.1,20-3.8c4.5-7.3,2.1-14.5-5.9-19.3
		l-14.2-8.7L764.7,141.9z"/>
	<path class="st0" d="M828.4,195.4l-4.7-4.1l-24,27.5l-9.2-8.1l53.8-61.7l9.3,8.1L831.1,183l4.7,4.1l42.1-8.8l10.6,9.2l-48.1,10.1
		L840,198l-3,53.3l-10.7-9.3L828.4,195.4z"/>
	<path class="st0" d="M869.8,225.7c18.8-14.9,43.8-12.6,58.5,5.9c14.6,18.3,11.3,43.3-7.5,58.3c-18.7,14.9-43.8,12.7-58.5-5.8
		C847.7,265.7,850.9,240.7,869.8,225.7z M913,280.1c13.7-10.9,16.5-28.7,6.4-41.4c-10.2-12.8-28.2-14.1-41.8-3.2
		c-13.7,10.9-16.5,28.7-6.3,41.5C881.5,289.9,899.4,291,913,280.1z M925.7,206.4c3.4-2.7,8.3-2,10.9,1.3s2.2,8.2-1.2,10.9
		c-3.3,2.6-8.1,2-10.8-1.3C922,214,922.4,209,925.7,206.4z M942.8,227.9c3.4-2.7,8.2-2.1,10.8,1.1c2.6,3.3,2.2,8.2-1.2,10.9
		c-3.3,2.6-8.1,2-10.8-1.3C939,235.4,939.5,230.5,942.8,227.9z"/>
	<path class="st0" d="M996.1,345.7l-73.1,36.9l-5.5-11l32.1-16.2l-17.2-34.1l-32.1,16.2l-5.5-11l73.1-36.9l5.5,11l-31.1,15.7
		l17.2,34.1l31.1-15.7L996.1,345.7z"/>
	<path class="st0" d="M967.9,383.3c23.2-6.2,45.2,6,51.3,28.8c6,22.6-7,44.2-30.2,50.4c-23.1,6.1-45.2-5.9-51.2-28.7
		C931.7,411.1,944.6,389.5,967.9,383.3z M985.8,450.5c16.8-4.5,26.6-19.7,22.4-35.4c-4.2-15.8-20.2-24.1-37.1-19.7
		c-16.8,4.5-26.6,19.7-22.4,35.5C953,446.8,968.9,455,985.8,450.5z"/>
	<path class="st0" d="M964.9,538.9l-11.1,0.8L950,486l81.7-5.8l0.9,12l-70.6,5L964.9,538.9z"/>
	<path class="st0" d="M952.2,562.4l0.5-12.3l81.8,3.2l-0.5,12.3L952.2,562.4z"/>
	<path class="st0" d="M944.8,614.9c4.2-23.7,24.2-35.8,48-31.5c24.1,4.3,39,23,34.9,46.2c-3.1,17.6-15.3,29.7-32.8,29.6l2.3-13
		c9.8-1,17.4-7.5,19.3-18.4c2.9-16.1-9-29-25.9-32.1c-17.5-3.1-31.9,5.7-34.7,21.2c-2,11.5,2.6,20.8,11,25.2l-2.3,13
		C949,649.4,941.6,633.1,944.8,614.9z"/>
	<path class="st0" d="M925.3,685.1c6.4-17,19-23.3,33.9-18.7l-4.3,11.4c-9-2.3-16,1.5-19.6,11c-2.8,7.6-1.9,15,6,18
		c9.1,3.4,15.1-3.9,19.9-10.2l2.8-3.7c6-7.6,15-16.4,28-11.5c13.3,5,17.5,18.9,12.2,33.2c-5.6,15-18.6,21.3-31.5,17.1l4.3-11.4
		c7.1,1.8,14-0.8,17.3-9.4c3-8,0.6-15.3-6-17.7c-7.9-3-13.3,4.1-17.8,9.9l-2.3,3.2c-4.8,6.1-15,18.3-30.8,12.3
		C922.6,713.3,920.1,698.8,925.3,685.1z"/>
	<path class="st0" d="M928.1,848.3l-67.2-46.8l7-10.1l29.5,20.5l21.8-31.3l-29.5-20.5l7-10.1l67.2,46.8l-7,10.1L928.3,787
		l-21.8,31.3l28.6,19.9L928.1,848.3z"/>
	<path class="st0" d="M819.4,859.8l-7.7-7.7l38.2-38.3l58,57.8l-37.3,37.5l-7.7-7.7l28.8-28.9l-17.1-17l-25.3,25.3l-7.5-7.5
		l25.3-25.3l-18-17.9L819.4,859.8z"/>
	<path class="st0" d="M765.7,900.1l-6.5-9l43.5-31.7l48.3,66.2l-9.7,7.1l-41.7-57.2L765.7,900.1z"/>
	<path class="st0" d="M708.1,930.3l-5.1-9.9l47.8-24.7l37.6,72.8l-10.7,5.5l-32.5-62.9L708.1,930.3z"/>
	<path class="st0" d="M713.2,961.5c7.1,22.9-4.2,45.4-26.8,52.4c-22.4,6.9-44.5-5.2-51.6-28.2c-7-22.8,4.1-45.3,26.7-52.3
		C684,926.4,706.1,938.4,713.2,961.5z M646.8,982c5.1,16.7,20.7,25.8,36.2,21c15.7-4.8,23.3-21.2,18.2-37.8
		c-5.2-16.7-20.7-25.8-36.4-21C649.3,949,641.7,965.3,646.8,982z"/>
	<path class="st0" d="M587,986.7c0.4,4.3-2.8,8.1-7,8.5c-4.1,0.3-7.9-2.8-8.3-7.2c-0.4-4.1,2.8-7.9,6.9-8.2
		C582.9,979.4,586.7,982.6,587,986.7z"/>
	<path class="st0" d="M423.8,1023.5l28.9-78.8l13.9,1.9l9.3,62.2l0.8,0.1l25.3-57.5l13.9,1.9l7.2,83.6l-11.9-1.6l-4.9-65.5l-0.8-0.1
		l-24.6,55.6l-13.5-1.8l-8.8-60.1l-0.9-0.1l-22.2,61.8L423.8,1023.5z"/>
	<path class="st0" d="M416.7,978.7c-8.5,22.4-31.3,33.2-53.4,24.7c-21.9-8.3-31.8-31.5-23.3-54c8.5-22.3,31.2-33.2,53.3-24.8
		C415.3,933.1,425.3,956.2,416.7,978.7z M351.8,953.9c-6.2,16.3,0.4,33.1,15.6,38.9c15.3,5.8,31.4-2.3,37.6-18.6
		c6.2-16.3-0.4-33.1-15.7-38.9C374,929.5,358,937.6,351.8,953.9z"/>
	<path class="st0" d="M304.8,879.8l-1.7,38.4l12.9,8.1l17.8-28.3l10.2,6.4l-43.5,69.4l-25.7-16.1c-13.5-8.5-16.8-21.6-9.3-33.6
		c6.2-9.8,15.9-13.1,26.4-10.2l1.6-41.1L304.8,879.8z M310.3,935.3l-14.1-8.8c-8.1-5.1-15.8-3.3-20.1,3.6
		c-4.5,7.2-2.3,14.4,5.6,19.4l14.1,8.8L310.3,935.3z"/>
	<path class="st0" d="M247.2,880.9l4.6,4.1l24.3-27.2l9.1,8.2l-54.6,61l-9.2-8.2l22.9-25.5l-4.6-4.1l-42.2,8.2l-10.5-9.4l48.2-9.5
		l0.4-0.4l3.7-53.2l10.6,9.4L247.2,880.9z"/>
	<path class="st0" d="M133.3,847c-3.4,2.7-8.2,2-10.8-1.3c-2.6-3.3-2.1-8.2,1.4-10.8c3.3-2.6,8.2-1.9,10.7,1.5
		C137.1,839.6,136.6,844.4,133.3,847z M150.1,868.7c-3.4,2.7-8.3,1.9-10.9-1.5c-2.6-3.3-2.1-8.2,1.4-10.8c3.3-2.6,8.2-1.9,10.7,1.5
		C153.9,861.2,153.4,866.2,150.1,868.7z M206.3,850.1c-19,14.7-44,12-58.4-6.7c-14.3-18.5-10.7-43.5,8.2-58.2
		c18.9-14.6,43.9-12.1,58.4,6.6C228.8,810.4,225.3,835.3,206.3,850.1z M163.7,795.2c-13.8,10.7-16.9,28.5-6.9,41.3
		c10,13,28,14.4,41.8,3.7c13.8-10.7,16.9-28.5,6.8-41.4C195.4,785.8,177.5,784.5,163.7,795.2z"/>
	<path class="st0" d="M81.5,728.5l73.6-35.9l5.4,11l-32.3,15.8l16.7,34.3l32.3-15.8l5.4,11L109,784.9l-5.4-11l31.3-15.3l-16.7-34.3
		l-31.3,15.3L81.5,728.5z"/>
	<path class="st0" d="M110.2,691.2c-23.2,5.9-45.1-6.6-50.9-29.5c-5.7-22.7,7.6-44.2,30.8-50c23.1-5.8,45.1,6.5,50.9,29.4
		C146.7,663.9,133.5,685.3,110.2,691.2z M93.1,623.9c-16.9,4.3-26.8,19.3-22.9,35.1c4,15.9,19.9,24.4,36.8,20.1
		c16.9-4.3,26.9-19.3,22.8-35.2C125.9,628,110,619.6,93.1,623.9z"/>
	<path class="st0" d="M115.1,535.7l11.1-0.7l3.1,53.7l-81.8,4.8l-0.7-12l70.7-4.1L115.1,535.7z"/>
	<path class="st0" d="M128.1,512.4l-0.6,12.3l-81.8-4.2l0.6-12.3L128.1,512.4z"/>
	<path class="st0" d="M136.2,460c-4.5,23.7-24.6,35.4-48.4,30.9c-24-4.6-38.8-23.5-34.3-46.7c3.3-17.6,15.6-29.5,33.2-29.2l-2.5,13
		c-9.8,0.9-17.5,7.3-19.5,18.2c-3.1,16.1,8.6,29.2,25.5,32.4c17.5,3.3,32-5.3,34.9-20.7c2.2-11.5-2.3-20.8-10.6-25.4l2.5-13
		C132.4,425.5,139.6,441.9,136.2,460z"/>
	<path class="st0" d="M156.6,390c-6.6,16.9-19.2,23-34.1,18.2l4.4-11.3c9,2.4,16.1-1.3,19.8-10.8c2.9-7.5,2.1-15-5.8-18.1
		c-9.1-3.5-15.1,3.7-20.1,9.9l-2.8,3.7c-6.1,7.5-15.2,16.2-28.2,11.1c-13.2-5.1-17.3-19.1-11.8-33.3c5.8-14.9,18.8-21,31.7-16.7
		l-4.4,11.3c-7.1-1.9-14,0.6-17.4,9.2c-3.1,8-0.8,15.3,5.8,17.8c7.8,3,13.3-4,18-9.7l2.4-3.2c4.8-6,15.2-18.1,31-11.9
		C159.6,361.9,161.9,376.4,156.6,390z"/>
	<path class="st0" d="M155.8,226.8l66.6,47.7l-7.1,10l-29.2-20.9l-22.2,31l29.2,20.9l-7.1,10l-66.6-47.7l7.2-10l28.4,20.3l22.2-31
		l-28.4-20.3L155.8,226.8z"/>
	<path class="st0" d="M264.6,216.7l7.6,7.8l-38.6,37.8l-57.3-58.5l37.8-37l7.6,7.8l-29.2,28.6l16.9,17.2l25.6-25l7.4,7.6l-25.6,25
		l17.8,18.1L264.6,216.7z"/>
	<path class="st0" d="M318.9,177.1l6.4,9.1l-43.9,31.2L234,150.6l9.8-7l41,57.7L318.9,177.1z"/>
	<path class="st0" d="M376.8,147.6l5,9.9l-48.1,24.1L297,108.4l10.8-5.4l31.7,63.3L376.8,147.6z"/>
	<path class="st0" d="M372.1,116.4c-6.8-23,4.8-45.3,27.5-52c22.4-6.6,44.4,5.8,51.2,28.8c6.8,22.9-4.7,45.3-27.4,52
		C400.8,151.8,378.9,139.5,372.1,116.4z M438.8,96.7c-4.9-16.7-20.4-26.1-36-21.5c-15.7,4.6-23.6,20.9-18.7,37.6
		s20.4,26.1,36.1,21.4C435.9,129.6,443.7,113.4,438.8,96.7z"/>
	<path class="st0" d="M498.6,92.8c-0.3-4.3,2.9-8.1,7.1-8.4c4.1-0.3,7.8,2.9,8.2,7.2c0.3,4.1-2.9,7.8-7,8.2
		C502.7,100.1,498.9,96.9,498.6,92.8z"/>
</g>
<circle class="st1" cx="540" cy="540" r="540"/>
</svg>
