<svg width="306" height="40" viewBox="0 0 306 40" fill="none" xmlns="http://www.w3.org/2000/svg">
<path d="M75.8927 25.6466C75.8927 29.6723 74.4968 33.0609 71.7101 35.8122C68.9234 38.5685 65.4185 39.9442 61.2056 39.9442C56.9927 39.9442 53.4878 38.5685 50.7011 35.8122C47.9144 33.0609 46.5186 29.6723 46.5186 25.6466C46.5186 21.6208 47.9144 18.2221 50.7011 15.4506C53.4878 12.6841 56.9876 11.2983 61.2056 11.2983C65.4185 11.2983 68.9234 12.6841 71.7101 15.4506C74.5019 18.2221 75.8927 21.6208 75.8927 25.6466ZM54.3173 25.6466C54.3173 27.9174 54.9646 29.7634 56.2543 31.1947C57.544 32.6209 59.1978 33.334 61.2107 33.334C63.2236 33.334 64.8774 32.6209 66.1671 31.1947C67.4567 29.7634 68.1041 27.9174 68.1041 25.6466C68.1041 23.3757 67.4567 21.5145 66.1671 20.0732C64.8774 18.6267 63.2236 17.9035 61.2107 17.9035C59.1978 17.9035 57.544 18.6267 56.2543 20.0732C54.9646 21.5145 54.3173 23.3757 54.3173 25.6466Z" fill="white"/>
<path d="M95.1171 18.571C92.8108 18.571 91.0913 19.3903 89.9533 21.0239C88.8204 22.6575 88.2489 24.8171 88.2489 27.5026V39.5294H80.5059V11.7636H88.2489V15.4252C89.2453 14.2873 90.4945 13.3264 91.9915 12.5323C93.4885 11.7434 95.0109 11.3286 96.5585 11.2932L96.609 18.571H95.1171Z" fill="white"/>
<path d="M109.16 39.5297H101.417V1.22906H109.16V20.8927L117.778 11.7032H127.534L116.954 22.9613L127.949 39.5297H118.759L111.689 28.8988L109.16 31.5338V39.5297Z" fill="white"/>
<path d="M170.003 24.5594V39.5247H162.26V1.22906H170.003V14.854C172.344 12.4821 174.964 11.2935 177.872 11.2935C180.78 11.2935 183.233 12.3253 185.226 14.3888C187.219 16.4522 188.22 19.2086 188.22 22.6477V39.5247H180.477V24.3521C180.477 20.0835 178.909 17.9493 175.779 17.9493C174.231 17.9493 172.881 18.5106 171.727 19.6284C170.579 20.7511 170.003 22.3948 170.003 24.5594Z" fill="white"/>
<path d="M221.908 25.6466C221.908 29.6723 220.512 33.0609 217.73 35.8122C214.944 38.5685 211.439 39.9442 207.226 39.9442C203.008 39.9442 199.508 38.5685 196.721 35.8122C193.935 33.0609 192.544 29.6723 192.544 25.6466C192.544 21.6208 193.935 18.2221 196.721 15.4506C199.508 12.6841 203.008 11.2983 207.226 11.2983C211.439 11.2983 214.944 12.6841 217.73 15.4506C220.512 18.2221 221.908 21.6208 221.908 25.6466ZM200.333 25.6466C200.333 27.9174 200.98 29.7634 202.27 31.1947C203.554 32.6209 205.213 33.334 207.221 33.334C209.229 33.334 210.883 32.6209 212.177 31.1947C213.467 29.7634 214.109 27.9174 214.109 25.6466C214.109 23.3757 213.467 21.5145 212.177 20.0732C210.888 18.6267 209.234 17.9035 207.221 17.9035C205.208 17.9035 203.554 18.6267 202.27 20.0732C200.975 21.5145 200.333 23.3757 200.333 25.6466Z" fill="white"/>
<path d="M234.188 39.5297H226.445V1.22906H234.188V39.5297Z" fill="white"/>
<path d="M267.871 33.076C270.45 33.076 272.777 31.7864 274.84 29.207L279.432 34.3657C275.852 38.083 271.982 39.9391 267.82 39.9391C263.658 39.9391 260.138 38.6241 257.265 35.9892C254.392 33.3542 252.956 29.9151 252.956 25.6667C252.956 21.4184 254.413 17.9591 257.316 15.2938C260.224 12.6284 263.673 11.2932 267.663 11.2932C269.656 11.2932 271.679 11.7029 273.727 12.5323C275.776 13.3567 277.571 14.5806 279.119 16.199L275.093 21.4639C274.198 20.3968 273.105 19.5724 271.816 18.9857C270.526 18.4041 269.241 18.1057 267.972 18.1057C265.939 18.1057 264.194 18.7683 262.732 20.0933C261.266 21.4184 260.537 23.2594 260.537 25.6162C260.537 27.973 261.266 29.8038 262.732 31.1137C264.194 32.4236 265.908 33.076 267.871 33.076Z" fill="white"/>
<path d="M18.3127 39.5043H10.3117L0.864258 11.7283H8.86527L14.2869 28.5041L19.7086 11.7283H27.1938L32.6154 28.5041L38.0371 11.7283H46.0937L36.6463 39.4992H28.5947L23.4765 24.3772L18.3127 39.5043Z" fill="white"/>
<path d="M305.297 30.942C305.297 33.6781 304.29 35.868 302.277 37.5218C300.264 39.1756 297.71 40 294.615 40C292.552 40 290.397 39.6308 288.162 38.8873C285.926 38.1489 283.913 37.0565 282.123 35.6101L285.532 30.7599C290.716 34.902 298.024 35.2662 298.024 31.9434C298.024 27.4219 283.883 28.9645 283.883 20.0481C283.883 15.3496 287.843 11.3542 294.979 11.3542C298.246 11.3542 301.519 12.4567 304.786 14.6567L301.898 19.8205C297.437 16.4471 291.11 16.4167 291.11 19.3046C291.105 23.4872 305.297 21.3883 305.297 30.942Z" fill="white"/>
<path d="M248.683 4.24327C248.683 6.5849 246.781 8.48653 244.44 8.48653C242.098 8.48653 240.196 6.58996 240.196 4.24327C240.196 1.90163 242.098 0 244.44 0C246.786 0.00505753 248.683 1.90163 248.683 4.24327Z" fill="white"/>
<path d="M248.313 39.5299H240.57V11.7641H248.313V39.5299Z" fill="white"/>
<path d="M152.636 4.24327C152.636 6.5849 150.734 8.48653 148.393 8.48653C146.051 8.48653 144.149 6.58996 144.149 4.24327C144.149 1.90163 146.046 0 148.393 0C150.734 0.00505753 152.636 1.90163 152.636 4.24327Z" fill="white"/>
<path d="M141.818 4.24327C141.818 6.5849 139.916 8.48653 137.574 8.48653C135.233 8.48653 133.331 6.58996 133.331 4.24327C133.331 1.90163 135.233 0 137.574 0C139.921 0.00505753 141.818 1.90163 141.818 4.24327Z" fill="white"/>
<path d="M157.657 25.6466C157.657 29.6723 156.261 33.0609 153.475 35.8122C150.688 38.5685 147.188 39.9442 142.97 39.9442C138.757 39.9442 135.252 38.5685 132.466 35.8122C129.679 33.0609 128.288 29.6723 128.288 25.6466C128.288 21.6208 129.679 18.2221 132.466 15.4506C135.252 12.6841 138.752 11.2983 142.97 11.2983C147.183 11.2983 150.688 12.6841 153.475 15.4506C156.261 18.2221 157.657 21.6208 157.657 25.6466ZM136.087 25.6466C136.087 27.9174 136.734 29.7634 138.024 31.1947C139.313 32.6209 140.967 33.334 142.98 33.334C144.993 33.334 146.647 32.6209 147.937 31.1947C149.226 29.7634 149.874 27.9174 149.874 25.6466C149.874 23.3757 149.231 21.5145 147.937 20.0732C146.647 18.6267 144.993 17.9035 142.98 17.9035C140.967 17.9035 139.319 18.6267 138.024 20.0732C136.729 21.5145 136.087 23.3757 136.087 25.6466Z" fill="white"/>
</svg>
