<?xml version="1.0" encoding="utf-8"?>
<!-- Generator: Adobe Illustrator 25.2.0, SVG Export Plug-In . SVG Version: 6.00 Build 0)  -->
<svg version="1.1" id="Capa_1" xmlns="http://www.w3.org/2000/svg" xmlns:xlink="http://www.w3.org/1999/xlink" x="0px" y="0px"
	 viewBox="0 0 497.5 61.6" style="enable-background:new 0 0 497.5 61.6;" xml:space="preserve">
<style type="text/css">
	.st0{fill:#FB088C;}
</style>
<g>
	<path class="st0" d="M12.2,60.6L0,18.8h10.7l7.2,30l8.4-30h11.9l8.4,30l7.3-30h10.7L52.4,60.6H41.2l-8.9-31.2l-8.9,31.2H12.2z"/>
	<path class="st0" d="M90,61.6c-4,0-7.7-0.9-10.9-2.8c-3.2-1.9-5.8-4.4-7.7-7.7c-1.9-3.3-2.8-7.1-2.8-11.4c0-4.3,1-8.1,2.9-11.4
		c1.9-3.3,4.5-5.8,7.7-7.7c3.2-1.9,6.9-2.8,10.9-2.8c4,0,7.6,0.9,10.8,2.8c3.2,1.9,5.8,4.4,7.7,7.7c1.9,3.3,2.8,7.1,2.8,11.4
		c0,4.3-0.9,8.1-2.8,11.4c-1.9,3.3-4.4,5.8-7.7,7.7C97.6,60.6,94,61.6,90,61.6z M90,52.2c2.8,0,5.2-1.1,7.3-3.2
		c2.1-2.1,3.1-5.2,3.1-9.4c0-4.1-1-7.3-3.1-9.4c-2.1-2.1-4.5-3.2-7.2-3.2c-2.9,0-5.3,1.1-7.4,3.2c-2,2.1-3.1,5.2-3.1,9.4
		c0,4.2,1,7.3,3.1,9.4C84.8,51.2,87.2,52.2,90,52.2z"/>
	<path class="st0" d="M120.9,60.6V18.8h9.6l1,7.8c1.5-2.7,3.6-4.8,6.2-6.4s5.7-2.4,9.2-2.4v11.4h-3c-2.4,0-4.5,0.4-6.3,1.1
		c-1.9,0.7-3.3,2-4.3,3.8c-1,1.8-1.6,4.3-1.6,7.5v19H120.9z"/>
	<path class="st0" d="M154.2,60.6V0H165v35.7l14.8-16.9h12.8l-17.1,19l19.8,22.7h-13.5L165,39.6v20.9H154.2z"/>
	<path class="st0" d="M218.6,61.6c-4,0-7.7-0.9-10.9-2.8c-3.2-1.9-5.8-4.4-7.7-7.7c-1.9-3.3-2.8-7.1-2.8-11.4c0-4.3,1-8.1,2.9-11.4
		c1.9-3.3,4.5-5.8,7.7-7.7c3.2-1.9,6.9-2.8,10.9-2.8c4,0,7.6,0.9,10.8,2.8c3.2,1.9,5.8,4.4,7.7,7.7c1.9,3.3,2.8,7.1,2.8,11.4
		c0,4.3-0.9,8.1-2.8,11.4c-1.9,3.3-4.4,5.8-7.7,7.7C226.2,60.6,222.6,61.6,218.6,61.6z M211,13.1c-1.5,0-2.7-0.5-3.7-1.5
		c-1-1-1.5-2.2-1.5-3.7c0-1.5,0.5-2.7,1.5-3.7c1-1,2.2-1.5,3.7-1.5c1.5,0,2.7,0.5,3.7,1.5s1.5,2.2,1.5,3.7c0,1.5-0.5,2.7-1.5,3.7
		S212.5,13.1,211,13.1z M218.6,52.2c2.8,0,5.2-1.1,7.3-3.2c2.1-2.1,3.1-5.2,3.1-9.4c0-4.1-1-7.3-3.1-9.4c-2.1-2.1-4.5-3.2-7.2-3.2
		c-2.9,0-5.3,1.1-7.4,3.2c-2,2.1-3.1,5.2-3.1,9.4c0,4.2,1,7.3,3.1,9.4C213.4,51.2,215.8,52.2,218.6,52.2z M226.2,13.1
		c-1.5,0-2.7-0.5-3.7-1.5c-1-1-1.5-2.2-1.5-3.7c0-1.5,0.5-2.7,1.5-3.7c1-1,2.2-1.5,3.7-1.5c1.5,0,2.7,0.5,3.7,1.5
		c1,1,1.5,2.2,1.5,3.7c0,1.5-0.5,2.7-1.5,3.7C228.9,12.6,227.7,13.1,226.2,13.1z"/>
	<path class="st0" d="M249.5,60.6V18.8h9.6l1,7.8c1.5-2.7,3.6-4.8,6.2-6.4c2.6-1.6,5.7-2.4,9.2-2.4v11.4h-3c-2.4,0-4.5,0.4-6.3,1.1
		c-1.9,0.7-3.3,2-4.3,3.8c-1,1.8-1.6,4.3-1.6,7.5v19H249.5z"/>
	<path class="st0" d="M302.1,61.6c-4,0-7.7-0.9-10.9-2.8c-3.2-1.9-5.8-4.4-7.7-7.7c-1.9-3.3-2.8-7.1-2.8-11.4c0-4.3,1-8.1,2.9-11.4
		c1.9-3.3,4.5-5.8,7.7-7.7c3.2-1.9,6.9-2.8,10.9-2.8c4,0,7.6,0.9,10.8,2.8c3.2,1.9,5.8,4.4,7.7,7.7c1.9,3.3,2.8,7.1,2.8,11.4
		c0,4.3-0.9,8.1-2.8,11.4c-1.9,3.3-4.4,5.8-7.7,7.7C309.7,60.6,306.1,61.6,302.1,61.6z M302.1,52.2c2.8,0,5.2-1.1,7.3-3.2
		c2.1-2.1,3.1-5.2,3.1-9.4c0-4.1-1-7.3-3.1-9.4c-2.1-2.1-4.5-3.2-7.2-3.2c-2.9,0-5.3,1.1-7.4,3.2c-2,2.1-3.1,5.2-3.1,9.4
		c0,4.2,1,7.3,3.1,9.4C296.9,51.2,299.3,52.2,302.1,52.2z"/>
	<path class="st0" d="M353.1,61.6c-4,0-7.7-0.9-10.9-2.8c-3.2-1.9-5.8-4.4-7.7-7.7c-1.9-3.3-2.8-7.1-2.8-11.4c0-4.3,1-8.1,2.9-11.4
		c1.9-3.3,4.5-5.8,7.7-7.7c3.2-1.9,6.9-2.8,10.9-2.8c4,0,7.6,0.9,10.8,2.8c3.2,1.9,5.8,4.4,7.7,7.7c1.9,3.3,2.8,7.1,2.8,11.4
		c0,4.3-0.9,8.1-2.8,11.4c-1.9,3.3-4.4,5.8-7.7,7.7C360.7,60.6,357.1,61.6,353.1,61.6z M353.1,52.2c2.8,0,5.2-1.1,7.3-3.2
		c2.1-2.1,3.1-5.2,3.1-9.4c0-4.1-1-7.3-3.1-9.4c-2.1-2.1-4.5-3.2-7.2-3.2c-2.9,0-5.3,1.1-7.4,3.2c-2,2.1-3.1,5.2-3.1,9.4
		c0,4.2,1,7.3,3.1,9.4C347.8,51.2,350.3,52.2,353.1,52.2z"/>
	<path class="st0" d="M384,60.6V18.8h9.5l0.9,5.6c1.3-2,3.1-3.6,5.3-4.8c2.2-1.2,4.8-1.8,7.7-1.8c6.4,0,11,2.5,13.7,7.5
		c1.5-2.3,3.5-4.1,6.1-5.5c2.6-1.3,5.3-2,8.4-2c5.4,0,9.6,1.6,12.5,4.9c2.9,3.3,4.4,8,4.4,14.3v23.5h-10.8V38c0-3.6-0.7-6.3-2.1-8.2
		c-1.4-1.9-3.5-2.9-6.4-2.9c-2.9,0-5.3,1.1-7,3.2c-1.8,2.1-2.6,5.1-2.6,8.9v21.5H413V38c0-3.6-0.7-6.3-2.1-8.2
		c-1.4-1.9-3.6-2.9-6.5-2.9c-2.9,0-5.2,1.1-6.9,3.2c-1.8,2.1-2.6,5.1-2.6,8.9v21.5H384z"/>
	<path class="st0" d="M480.1,61.6c-3.7,0-7-0.6-9.8-1.8c-2.8-1.2-5-2.9-6.7-5c-1.7-2.1-2.7-4.6-3-7.4h10.8c0.3,1.6,1.2,3,2.7,4.2
		c1.5,1.1,3.4,1.7,5.8,1.7s4.1-0.5,5.2-1.4c1.1-1,1.6-2,1.6-3.3c0-1.8-0.8-3-2.4-3.7c-1.6-0.6-3.8-1.3-6.6-1.9
		c-1.8-0.4-3.6-0.9-5.5-1.4c-1.9-0.6-3.5-1.3-5.1-2.1c-1.5-0.9-2.8-2-3.7-3.4c-1-1.4-1.4-3.1-1.4-5.1c0-3.7,1.5-6.8,4.4-9.3
		c2.9-2.5,7.1-3.8,12.4-3.8c4.9,0,8.9,1.1,11.8,3.4c2.9,2.3,4.7,5.5,5.3,9.5h-10.2c-0.6-3.1-2.9-4.6-7-4.6c-2,0-3.6,0.4-4.7,1.2
		c-1.1,0.8-1.6,1.8-1.6,2.9c0,1.2,0.8,2.2,2.4,2.9c1.6,0.7,3.8,1.4,6.5,2c2.9,0.7,5.6,1.4,8,2.2c2.4,0.8,4.4,2,5.8,3.6
		c1.5,1.6,2.2,3.9,2.2,6.9c0.1,2.6-0.6,4.9-2,7c-1.4,2.1-3.4,3.7-6.1,4.9C486.8,61,483.7,61.6,480.1,61.6z"/>
</g>
</svg>
